HIERARCHY
ROOT Hips
{
	OFFSET 0.000000 0.000000 0.000000 
	CHANNELS 6 Xposition Yposition Zposition Zrotation Yrotation Xrotation
	JOINT LeftUpLeg
	{
		OFFSET 1.363060 -1.794630 0.839290 
		CHANNELS 3 Zrotation Yrotation Xrotation
		JOINT LeftLeg
		{
			OFFSET 2.448110 -6.726130 0.000000 
			CHANNELS 3 Zrotation Yrotation Xrotation
			JOINT LeftFoot
			{
				OFFSET 2.562200 -7.039590 0.000000 
				CHANNELS 3 Zrotation Yrotation Xrotation
				JOINT LeftToeBase
				{
					OFFSET 0.157640 -0.433110 2.322550 
					CHANNELS 3 Zrotation Yrotation Xrotation
					End Site
					{
						OFFSET 0.000000 0.000000 0.000000 
					}
				}
			}
		}
	}
	JOINT RightUpLeg
	{
		OFFSET -1.305520 -1.794630 0.839290 
		CHANNELS 3 Zrotation Yrotation Xrotation
		JOINT RightLeg
		{
			OFFSET -2.542530 -6.985550 0.000000 
			CHANNELS 3 Zrotation Yrotation Xrotation
			JOINT RightFoot
			{
				OFFSET -2.568260 -7.056230 0.000000 
				CHANNELS 3 Zrotation Yrotation Xrotation
				JOINT RightToeBase
				{
					OFFSET -0.164730 -0.452590 2.363150 
					CHANNELS 3 Zrotation Yrotation Xrotation
					End Site
					{
						OFFSET 0.000000 0.000000 0.000000 
					}
				}
			}
		}
	}
	JOINT Spine
	{
		OFFSET 0.028270 2.035590 -0.193380 
		CHANNELS 3 Zrotation Yrotation Xrotation
		JOINT Spine1
		{
			OFFSET 0.056720 2.048850 -0.042750 
			CHANNELS 3 Zrotation Yrotation Xrotation
			JOINT Neck1
			{
				OFFSET -0.054170 1.746240 0.172020 
				CHANNELS 3 Zrotation Yrotation Xrotation
				JOINT Head
				{
					OFFSET 0.104070 1.761360 -0.123970 
					CHANNELS 3 Zrotation Yrotation Xrotation
					End Site
					{
						OFFSET 0.000000 0.000000 0.000000 
					}
				}
			}
			JOINT LeftArm
			{
				OFFSET 3.362410 1.200890 -0.311210 
				CHANNELS 3 Zrotation Yrotation Xrotation
				JOINT LeftForeArm
				{
					OFFSET 4.983000 -0.000000 -0.000000 
					CHANNELS 3 Zrotation Yrotation Xrotation
					JOINT LeftHand
					{
						OFFSET 3.483560 -0.000000 -0.000000 
						CHANNELS 3 Zrotation Yrotation Xrotation
						JOINT LeftHandIndex1
						{
							OFFSET 0.715260 -0.000000 -0.000000 
							CHANNELS 3 Zrotation Yrotation Xrotation
							End Site
							{
								OFFSET 0.000000 0.000000 0.000000 
							}
						}
					}
				}
			}
			JOINT RightArm
			{
				OFFSET -3.136600 1.374050 -0.404650 
				CHANNELS 3 Zrotation Yrotation Xrotation
				JOINT RightForeArm
				{
					OFFSET -5.241900 -0.000000 -0.000000 
					CHANNELS 3 Zrotation Yrotation Xrotation
					JOINT RightHand
					{
						OFFSET -3.444170 -0.000000 -0.000000 
						CHANNELS 3 Zrotation Yrotation Xrotation
						JOINT RightHandIndex1
						{
							OFFSET -0.622530 -0.000000 -0.000000 
							CHANNELS 3 Zrotation Yrotation Xrotation
							End Site
							{
								OFFSET 0.000000 0.000000 0.000000 
							}
						}
					}
				}
			}
		}
	}
}
MOTION
Frames: 7
Frame Time: 0.041667
9.313689 17.886355 10.395403 -178.686700 2.530419 -149.505109 -23.021555 -20.175154 -21.478661 -1.118325 4.662072 9.360577 0.270264 -4.533611 -17.275687 5.444000 -13.867000 -42.707200 28.615332 21.056258 -21.627079 1.333174 -5.232017 10.505205 -1.209276 -5.579889 -24.285314 -3.046400 10.769800 -31.507300 1.405869 -0.182012 -5.727974 -1.046890 -0.418245 12.482290 14.350238 -5.748803 23.079127 3.408700 -1.301800 5.370400 -103.463259 -4.852502 -4.056331 7.425073 -6.772439 -0.502351 -0.627618 1.782983 28.816329 -7.125000 0.000000 0.000000 98.604669 -2.428814 14.673766 -17.091788 28.621696 -5.530693 0.581035 3.536347 1.272785 7.125000 0.000000 0.000000 
9.323192 17.888976 10.384917 -178.686353 2.658793 -149.613506 -23.032441 -20.247913 -21.383260 -1.114127 4.744321 9.596865 0.301504 -4.302215 -17.236881 4.986900 -13.369100 -40.766200 28.724147 20.962250 -21.526722 1.330788 -5.255674 10.604004 -1.197405 -5.746156 -24.195473 -3.267300 11.115700 -32.671100 1.395568 -0.097809 -5.740739 -0.997008 -0.369406 12.376465 14.352574 -5.690832 23.015855 3.425600 -1.283800 5.314900 -103.510413 -4.639317 -4.005229 7.537003 -6.953881 -0.522208 -0.623309 1.768176 28.568388 -7.125000 0.000000 0.000000 98.569172 -2.336509 14.500463 -16.871348 28.341653 -5.415329 0.629925 3.543339 1.590873 7.125000 0.000000 0.000000 
9.330401 17.884935 10.372137 -178.727095 2.717789 -149.599305 -23.164481 -20.195421 -21.411517 -1.105384 4.773112 9.661379 0.283224 -3.968439 -16.479816 4.387600 -12.659100 -38.105400 28.722564 20.985355 -21.459905 1.335522 -5.239255 10.572327 -1.191438 -5.884588 -24.176624 -3.402100 11.319200 -33.364000 1.356169 0.024396 -5.727926 -1.011361 -0.313367 12.446728 14.321546 -5.719447 22.953754 3.389400 -1.299000 5.288600 -103.399694 -4.552038 -2.377066 7.658400 -7.060247 -0.539079 -0.694072 1.707978 26.868353 -7.125000 0.000000 0.000000 98.575307 -2.189555 14.407195 -16.721530 28.152975 -5.332450 0.613368 3.553794 1.723740 7.125000 0.000000 0.000000 
9.338703 17.882422 10.362525 -178.742149 2.667617 -149.520935 -23.173613 -20.075944 -21.517400 -1.099850 4.775904 9.658563 0.256123 -4.111077 -16.416908 4.580300 -12.895000 -38.976700 28.737652 21.038263 -21.437885 1.340076 -5.206517 10.481142 -1.183879 -5.906955 -24.109699 -3.328300 11.208500 -32.986300 1.337380 0.082941 -5.736092 -1.007364 -0.282705 12.464714 14.293291 -5.755630 22.890122 3.355300 -1.318300 5.265300 -103.308231 -4.478671 -0.649732 7.782572 -7.171854 -0.558726 -0.755667 1.653633 25.132890 -7.125000 0.000000 0.000000 98.552084 -2.102707 14.362121 -16.620135 28.020227 -5.270794 0.571429 3.573877 1.975136 7.125000 0.000000 0.000000 
9.344492 17.880893 10.345375 -178.775035 2.811537 -149.567373 -23.277340 -20.017515 -21.299153 -1.107315 4.718740 9.557533 0.281073 -3.993216 -16.469636 4.601000 -12.919800 -39.069100 28.699530 21.106676 -21.292605 1.338706 -5.168545 10.411975 -1.185271 -5.849976 -24.083843 -3.201700 11.014600 -32.329100 1.315459 0.190925 -5.735290 -0.988066 -0.233699 12.476438 14.274819 -5.761464 22.829398 3.342800 -1.327600 5.237300 -103.325125 -4.453982 0.305847 7.861154 -7.247289 -0.570326 -0.787529 1.603629 24.154693 -7.125000 0.000000 0.000000 98.535241 -2.175777 14.379189 -16.610702 28.011683 -5.265398 0.570361 3.583053 2.023016 7.125000 0.000000 0.000000 
9.352247 17.881658 10.335982 -178.899524 2.980410 -149.645530 -23.474186 -19.982513 -21.102356 -1.116524 4.662600 9.447600 0.310759 -3.839820 -16.523385 4.823700 -13.182400 -40.055300 28.505173 21.300496 -21.146793 1.344968 -5.134774 10.342331 -1.184348 -6.022829 -24.131007 -3.155900 10.943300 -32.088800 1.290744 0.289943 -5.732211 -0.918321 -0.198457 12.443800 14.263112 -5.748312 22.752853 3.340900 -1.330500 5.218600 -103.409243 -4.600790 0.302424 7.865837 -7.247194 -0.570921 -0.806668 1.612794 24.203276 -7.125000 0.000000 0.000000 98.574372 -2.118052 14.307022 -16.566065 27.954067 -5.249432 0.623161 3.573227 1.771061 7.125000 0.000000 0.000000 
9.361095 17.883405 10.328772 -178.934049 3.076080 -149.660190 -23.540713 -19.850771 -21.046848 -1.122966 4.611634 9.332062 0.321244 -3.768964 -16.506515 5.172900 -13.575900 -41.564600 28.457320 21.424814 -21.070577 1.349981 -5.108903 10.278944 -1.183444 -6.096426 -24.148220 -3.136800 10.913300 -31.987900 1.290097 0.322821 -5.734694 -0.864266 -0.189709 12.427595 14.237283 -5.720363 22.674749 3.334600 -1.327000 5.204900 -103.524136 -4.764294 0.099950 7.888151 -7.292172 -0.580689 -0.822945 1.691133 24.457870 -7.125000 0.000000 0.000000 98.588679 -1.912147 14.238061 -16.421513 27.765060 -5.177386 0.665729 3.582446 1.722372 7.125000 0.000000 0.000000 
